# Blender v2.76 (sub 0) OBJ File: 'pk_ship.blend'
# www.blender.org
mtllib pk_ship.mtl
o Cube
v 0.990517 -1.797127 -1.005767
v 0.990517 -1.797127 0.994233
v -1.009483 -1.797127 0.994233
v -1.009483 -1.797127 -1.005768
v 0.990518 0.202873 -1.005767
v 0.990516 0.202873 0.994233
v -1.009483 0.202873 0.994232
v -1.009483 0.202873 -1.005767
v 1.265817 -2.072428 -0.005767
v -0.009483 -2.072428 -1.281067
v 1.265818 -0.797127 -1.281067
v -0.009483 -2.072428 1.269533
v 1.265817 -0.797127 1.269533
v -1.284783 -2.072428 -0.005768
v -1.284783 -0.797127 1.269533
v -1.284783 -0.797127 -1.281068
v 1.265817 0.478173 -0.005767
v -0.009483 0.478173 -1.281067
v -0.009483 0.478173 1.269533
v -1.284783 0.478173 -0.005767
v -0.009483 -0.370334 -3.305282
v -1.811419 -0.797127 -0.005768
v -0.009483 -0.797127 1.796169
v 1.792453 -0.797127 -0.005767
v -0.009483 1.004808 -0.005767
v -0.009483 -2.599063 -0.005767
v 1.215940 -2.022550 0.525163
v -0.540412 -2.022550 -1.231190
v 1.215940 -0.266197 -1.231189
v -0.540413 -2.022550 1.219655
v 1.215939 -0.266198 1.219656
v -1.234905 -2.022550 -0.536698
v -1.234906 -0.266198 1.219655
v -1.234905 -0.266198 -1.231190
v 1.215940 0.428295 0.525163
v -0.540413 0.428295 -1.231190
v -0.540413 0.428295 1.219655
v -1.234906 0.428295 -0.536697
v 1.215940 -2.022550 -0.536697
v 0.521447 -2.022550 -1.231190
v 1.215940 -1.328057 -1.231190
v 0.521447 -2.022550 1.219655
v 1.215940 -1.328057 1.219656
v -1.234906 -2.022550 0.525162
v -1.234906 -1.328057 1.219655
v -1.234905 -1.328057 -1.231190
v 1.215940 0.428295 -0.536697
v 0.521448 0.428295 -1.231190
v 0.521446 0.428295 1.219656
v -1.234906 0.428295 0.525162
v -0.724423 -0.370334 -3.227992
v 0.705458 -0.370334 -3.227992
v -0.009482 -0.082187 -1.730413
v -0.009483 -1.512068 -1.730413
v -1.734128 -0.797127 -0.720708
v -1.734129 -0.797127 0.709173
v -1.734128 -1.512068 -0.005768
v -1.734128 -0.082187 -0.005768
v -0.724424 -0.797127 1.718878
v 0.705457 -0.797127 1.718879
v -0.009483 -1.512068 1.718878
v -0.009483 -0.082187 1.718878
v 1.715163 -0.797127 0.709174
v 1.715163 -0.797127 -0.720707
v 1.715163 -1.512068 -0.005767
v 1.715163 -0.082187 -0.005767
v -0.009483 0.927518 0.709174
v -0.009483 0.927518 -0.720707
v 0.705458 0.927518 -0.005767
v -0.724423 0.927518 -0.005767
v -0.724423 -2.521773 -0.005768
v 0.705458 -2.521773 -0.005767
v -0.009483 -2.521773 -0.720708
v -0.009483 -2.521773 0.709173
v 0.663566 -2.433913 0.686296
v 0.663566 -2.433913 -0.697831
v -0.682531 -2.433913 -0.697831
v -0.701546 0.839658 -0.678815
v 0.682581 0.839658 -0.678815
v 0.682580 0.839658 0.667282
v 1.627303 -0.105064 -0.678815
v 1.627303 -1.489191 -0.678815
v 1.627303 -1.489191 0.667281
v 0.663565 -0.105064 1.631019
v 0.663565 -1.489191 1.631019
v -0.682531 -1.489191 1.631018
v -1.646269 -0.105064 0.667281
v -1.646269 -1.489191 0.667281
v -1.646268 -1.489191 -0.678816
v 0.663566 -1.489191 -1.642553
v 0.663566 -0.105064 -1.642553
v -0.682531 -0.105064 -1.642553
v -0.682531 -1.489191 -1.642553
v -1.646268 -0.105064 -0.678816
v -0.682532 -0.105064 1.631018
v 1.627303 -0.105064 0.667282
v -0.701547 0.839658 0.667281
v -0.682531 -2.433913 0.686296
v 0.521448 0.428295 -1.231190
v -0.009483 0.478173 -1.281067
v -0.540413 0.428295 -1.231190
v 0.009697 1.127226 -5.371380
v 0.236161 1.318191 -4.643440
v -0.009149 1.436254 -4.030450
v -0.215434 1.318191 -4.643441
v 0.029543 1.406051 -4.685333
v 0.682581 1.298661 -4.020545
v 0.235494 1.130864 -4.665523
v 0.683248 1.485987 -3.998463
v -0.216101 1.130864 -4.665524
v -0.701546 1.298661 -4.020546
v 0.236161 1.318191 -4.643440
v -0.700879 1.485987 -3.998463
v -0.008816 1.573847 -4.040355
v -0.215434 1.318191 -4.643441
v 0.029543 1.406051 -4.685333
v 0.714565 1.479984 -5.559661
v 0.267478 1.312187 -6.204638
v 0.715232 1.667310 -5.537578
v -0.184116 1.312187 -6.204639
v -0.669562 1.479984 -5.559661
v 0.268145 1.499514 -6.182556
v -0.183449 1.499514 -6.182556
v -0.668895 1.667310 -5.537579
v 1.215940 0.428295 -0.536697
v 1.265817 0.478173 -0.005767
v 1.215940 0.428295 0.525163
v 1.715163 -0.082187 -0.005767
v 1.627303 -0.105064 -0.678815
v 1.627303 -0.105064 0.667282
v -1.234906 1.195444 0.525163
v -1.234906 1.195444 -0.536697
v -1.734129 0.684962 -0.005768
v -1.646269 0.662085 0.667281
v -1.646269 0.662085 -0.678816
v 1.215940 1.195444 -0.536696
v 1.265817 1.245322 -0.005766
v 1.215939 1.195444 0.525163
v 1.715163 0.684962 -0.005766
v 1.627303 0.662085 -0.678815
v 1.627303 0.662085 0.667282
v -1.646269 0.662085 0.667281
v -1.646269 -0.105064 0.667281
v -1.734128 -0.082187 -0.005768
v -1.646268 -0.105064 -0.678816
v 1.627303 -0.105064 -0.678815
v 1.715163 -0.082187 -0.005767
v 1.627303 -0.105064 0.667282
v -1.734129 0.684962 -0.005768
v -1.646269 0.662085 -0.678816
v 1.627303 0.662085 -0.678815
v 1.715163 0.684962 -0.005766
v 1.627303 0.662085 0.667282
v -1.234906 0.428295 0.525162
v -1.284783 0.478173 -0.005767
v 0.705458 0.927518 -0.005767
v 1.265817 0.478173 -0.005767
v -0.724423 0.927518 -0.005767
v -0.009483 1.004808 -0.005767
v 1.215940 0.428295 0.525163
v -1.234906 0.428295 -0.536697
v -0.009483 0.927518 0.709174
v 0.682580 0.839658 0.667282
v -0.701547 0.839658 0.667281
v 1.265817 0.478173 -0.005767
v 1.215940 0.428295 0.525163
v -1.234906 1.195444 0.525163
v -1.284783 1.245322 -0.005767
v -1.234906 1.195444 -0.536697
v -1.734129 0.684962 -0.005768
v -1.646269 0.662085 0.667281
v -1.646269 0.662085 -0.678816
v 1.215940 1.195444 -0.536696
v 1.265817 1.245322 -0.005766
v 1.215939 1.195444 0.525163
v 1.715163 0.684962 -0.005766
v 1.627303 0.662085 -0.678815
v 1.627303 0.662085 0.667282
v -1.646269 0.662085 0.667281
v -1.646269 -0.105064 0.667281
v -1.734128 -0.082187 -0.005768
v -1.646268 -0.105064 -0.678816
v 1.627303 -0.105064 -0.678815
v 1.715163 -0.082187 -0.005767
v 1.627303 -0.105064 0.667282
v -1.734129 0.684962 -0.005768
v -1.646269 0.662085 -0.678816
v 1.627303 0.662085 -0.678815
v 1.715163 0.684962 -0.005766
v 1.627303 0.662085 0.667282
v -6.646269 0.662084 0.667279
v -6.646269 -0.105065 0.667279
v -6.734128 -0.082188 -0.005769
v -6.646268 -0.105065 -0.678817
v -6.734128 0.684961 -0.005769
v -6.646268 0.662084 -0.678817
v 6.627303 -0.105063 -0.678813
v 6.715163 -0.082186 -0.005765
v 6.627303 -0.105063 0.667284
v -6.646269 0.650352 0.667279
v 6.627303 0.650353 -0.678813
v 6.715163 0.673230 -0.005765
v 6.627303 0.650353 0.667284
v -1.646269 0.662085 0.667281
v -1.646269 -0.105064 0.667281
v 0.682580 0.839658 0.667282
v 1.215940 0.428295 0.525163
v -0.009483 0.927518 0.709174
v -1.234906 0.428295 0.525162
v 1.715163 -0.082187 -0.005767
v 1.627303 -0.105064 0.667282
v -0.701547 0.839658 0.667281
v -1.234906 1.195444 0.525163
v 1.715163 -0.082187 -0.005767
v 1.627303 -0.105064 0.667282
v 1.215940 0.428295 0.525163
v 1.627303 -0.105064 0.667282
v 1.627303 -0.105064 0.667282
v -1.646269 0.662085 0.667281
v -1.646269 -0.105064 0.667281
v 1.715163 -0.082187 -0.005767
v 0.682580 0.839658 0.667282
v 1.215940 0.428295 0.525163
v -0.009483 0.927518 0.709174
v -0.701547 0.839658 0.667281
v -1.234906 0.428295 0.525162
v -1.234906 1.195444 0.525163
v 1.215940 0.428295 0.525163
v -1.646269 0.662085 0.667281
v -1.646269 -0.105064 0.667281
v 1.715163 -0.082187 -0.005767
v -6.646269 0.662084 0.667279
v -6.646269 -0.105065 0.667279
v 6.715163 -0.082186 -0.005765
v 6.627303 -0.105063 0.667284
v 6.715163 0.673230 -0.005765
v 6.627303 0.650353 -0.678813
v 6.627303 1.417502 -0.678813
v 6.715163 1.440379 -0.005765
v 6.627303 0.650353 0.667284
v 6.715163 0.673230 -0.005765
v 6.715163 1.440379 -0.005765
v 6.627303 1.417502 0.667284
v -1.646269 0.662085 0.667281
v -1.734129 0.684962 -0.005768
v -6.734128 0.684961 -0.005769
v -6.646269 0.662084 0.667279
v -1.734129 0.684962 -0.005768
v -1.646269 0.662085 -0.678816
v -6.646268 0.662084 -0.678817
v -6.734128 0.684961 -0.005769
v -1.646269 0.662085 -0.678816
v -1.646268 -0.105064 -0.678816
v -6.646268 -0.105065 -0.678817
v -6.646268 0.662084 -0.678817
v -1.646269 0.662085 0.667281
v -6.646269 0.662084 0.667279
v -6.646269 0.662084 0.667279
v -1.646269 0.662085 0.667281
v -1.646269 -0.105064 0.667281
v -1.646269 0.662085 0.667281
v -6.646269 0.662084 0.667279
v -6.646269 -0.105065 0.667279
v -6.734128 -0.082188 -0.005769
v -6.646269 -0.105065 0.667279
v -6.646269 0.650352 0.667279
v -6.734128 0.673229 -0.005769
v -6.646268 -0.105065 -0.678817
v -6.734128 -0.082188 -0.005769
v -6.734128 0.673229 -0.005769
v -6.646268 0.650352 -0.678817
v 1.627303 0.662085 -0.678815
v 1.715163 0.684962 -0.005766
v 6.715163 0.684963 -0.005765
v 6.627303 0.662086 -0.678813
v 1.715163 0.684962 -0.005766
v 1.627303 0.662085 0.667282
v 6.627303 0.662086 0.667284
v 6.715163 0.684963 -0.005765
v 1.627303 -0.105064 -0.678815
v 1.627303 0.662085 -0.678815
v 6.627303 0.662086 -0.678813
v 6.627303 -0.105063 -0.678813
v 6.207109 0.662085 0.667282
v 6.207109 -0.105064 0.667282
v 6.627303 -0.105063 0.667284
v 6.627303 0.662086 0.667284
v 2.903598 2.120023 -0.021922
v -2.878109 2.084095 -0.024647
v -6.374421 0.662085 0.667281
v -6.374421 -0.105064 0.667281
v -6.646269 0.662084 0.667279
v -6.646269 -0.105065 0.667279
v 1.627303 0.662085 0.674564
v -0.009482 0.272952 -3.563774
v 1.627303 -0.105064 0.674564
v 6.627303 0.662086 0.674566
v 6.627303 -0.105063 0.674566
v -1.734129 0.015630 0.709173
v -1.811419 0.015630 -0.005767
v -1.734129 0.730570 -0.005767
v 1.715163 0.015630 -0.720707
v 1.792453 0.015630 -0.005766
v 1.715163 0.730570 -0.005766
v -1.734128 0.015630 -0.720708
v 1.715162 0.015630 0.709174
v 1.627303 0.707693 -0.678815
v -1.646269 0.707693 0.667281
v -1.646269 0.707693 -0.678816
v 1.627303 0.707693 0.667282
v -6.716659 0.970241 -0.005768
v 6.718760 0.972790 -0.005765
vn 0.000000 0.000000 1.000000
vn 0.119200 -0.985700 -0.119200
vn 0.119200 -0.985700 0.119200
vn -0.119200 -0.985700 -0.119200
vn -0.991600 -0.000000 0.129400
vn -0.991600 0.000000 -0.129400
vn 0.430400 0.000000 -0.902600
vn -0.119200 -0.985700 0.119200
vn 0.000000 0.921100 -0.389300
vn 0.991600 -0.000000 -0.129400
vn -0.430400 -0.000000 0.902600
vn 0.991600 0.000000 0.129400
vn -0.430400 0.000000 -0.902600
vn 0.430400 -0.000000 0.902600
vn -0.077800 -0.984600 -0.156600
vn 0.077900 -0.984700 -0.155900
vn -0.951700 0.039300 -0.304600
vn -0.202200 0.924600 -0.322700
vn 0.210100 0.927900 -0.308000
vn 0.999800 -0.005900 0.020100
vn -0.465800 0.879900 0.094000
vn 0.812000 0.065500 -0.579900
vn -0.787300 0.075000 -0.612000
vn -0.999800 0.005900 -0.020100
vn -0.455900 -0.882800 -0.113500
vn 0.465800 -0.879900 -0.094000
vn 0.455900 0.882800 0.113500
vn 0.951900 0.032500 -0.304700
vn 0.425800 0.833900 -0.351200
vn -0.368500 0.864900 -0.340900
vn 0.365400 -0.879800 0.304000
vn 0.051200 0.071600 0.996100
vn 0.037500 -0.117100 0.992400
vn -0.037500 -0.116900 0.992400
vn -0.051200 0.071800 0.996100
vn -0.356000 -0.888300 0.290100
vn -0.115500 0.981800 0.150900
vn 0.115500 0.981800 0.150900
vn 0.972100 -0.089900 -0.216600
vn -0.972100 -0.089700 -0.216800
vn 0.943600 0.325300 -0.061700
vn -0.955500 0.284300 -0.079000
vn -0.127300 0.076000 0.988900
vn -0.191000 -0.981400 0.020600
vn -0.127300 0.076000 -0.988900
vn -0.191000 -0.981400 -0.020600
vn 0.048000 0.998500 -0.027700
vn 0.048000 0.998500 0.027700
vn 0.126800 0.076000 0.989000
vn -0.048300 0.998400 -0.027600
vn 0.190700 -0.981400 -0.020600
vn 0.126800 0.076000 -0.989000
vn 0.190700 -0.981400 0.020600
vn -0.048300 0.998400 0.027600
vn -0.326500 -0.000000 0.945200
vn 0.326500 0.000000 -0.945200
vn -0.995600 0.000000 0.093500
vn -0.326500 0.000000 -0.945200
vn 0.995600 0.000000 0.093500
vn 0.995600 0.000000 -0.093500
vn -0.995600 0.000000 -0.093500
vn 0.326500 -0.000000 0.945200
vn 0.767400 -0.636400 -0.078500
vn 0.768200 -0.635300 0.078700
vn -0.471000 0.881300 -0.038500
vn 0.104900 0.330800 -0.937900
vn -0.470500 0.881600 0.038600
vn 0.116900 0.338900 0.933500
vn -0.125100 0.344400 0.930500
vn -0.110600 0.334700 -0.935800
vn 0.465100 0.884400 0.039400
vn -0.771200 -0.631600 -0.079200
vn -0.772200 -0.630300 0.079400
vn 0.465800 0.884000 -0.039300
vn -0.790500 0.566900 -0.231700
vn 0.082300 -0.811100 -0.579100
vn 0.781700 -0.460500 -0.420700
vn 0.790500 0.566900 -0.231700
vn -0.781700 -0.460500 -0.420700
vn -0.082300 -0.811100 -0.579100
vn 0.008500 0.981700 0.190200
vn -0.099800 -0.371000 -0.923300
vn -0.691300 0.715400 -0.101400
vn -0.008500 0.981700 0.190200
vn 0.691300 0.715400 -0.101400
vn 0.099800 -0.371000 -0.923300
vn -0.577900 0.577900 0.576200
vn 0.125900 0.623600 0.771600
vn 0.119200 0.119200 0.985700
vn 0.618400 0.133600 0.774400
vn 0.577900 0.577900 0.576200
vn -0.618400 0.133600 0.774400
vn -0.119200 0.119200 0.985700
vn -0.125900 0.623600 0.771600
vn -0.577900 -0.576200 0.577900
vn -0.577900 0.576200 0.577900
vn 0.576200 0.577900 0.577900
vn -0.576200 0.577900 -0.577900
vn -0.577900 -0.577900 -0.576200
vn 0.125900 -0.623600 -0.771600
vn -0.774400 -0.133600 -0.618400
vn -0.618400 -0.133600 0.774400
vn 0.119200 -0.119200 0.985700
vn 0.774400 -0.133600 0.618400
vn 0.133600 0.774400 0.618400
vn 0.119200 0.985700 -0.119200
vn -0.623600 0.771600 -0.125900
vn -0.618400 -0.774400 -0.133600
vn 0.125900 -0.771600 0.623600
vn 0.618400 -0.774400 0.133600
vn 0.577900 -0.576200 0.577900
vn 0.125900 -0.771600 -0.623600
vn 0.577900 -0.576200 -0.577900
vn 0.618400 -0.774400 -0.133600
vn -0.577900 -0.576200 -0.577900
vn -0.125900 -0.771600 -0.623600
vn -0.119200 0.985700 -0.119200
vn -0.577900 0.576200 -0.577900
vn 0.623600 0.771600 -0.125900
vn 0.577900 0.576200 -0.577900
vn 0.577900 0.576200 0.577900
vn 0.774400 0.133600 -0.618400
vn 0.576200 0.577900 -0.577900
vn 0.576200 -0.577900 -0.577900
vn 0.774400 -0.133600 -0.618400
vn 0.576200 -0.577900 0.577900
vn 0.125900 -0.623600 0.771600
vn 0.577900 -0.577900 0.576200
vn 0.618400 -0.133600 0.774400
vn -0.577900 -0.577900 0.576200
vn -0.125900 -0.623600 0.771600
vn -0.119200 -0.119200 0.985700
vn -0.774400 0.133600 0.618400
vn -0.576200 0.577900 0.577900
vn -0.576200 -0.577900 0.577900
vn -0.774400 -0.133600 0.618400
vn -0.576200 -0.577900 -0.577900
vn 0.577900 -0.577900 -0.576200
vn 0.125900 0.623600 -0.771600
vn 0.577900 0.577900 -0.576200
vn -0.577900 0.577900 -0.576200
vn -0.125900 0.623600 -0.771600
vn -0.125900 -0.623600 -0.771600
vn -0.774400 0.133600 -0.618400
vn 0.774400 0.133600 0.618400
vn -0.133600 0.774400 0.618400
vn -0.618400 -0.774400 0.133600
vn -0.125900 -0.771600 0.623600
vn 0.623600 0.771600 0.125900
vn 0.119200 0.985700 0.119200
vn -0.119200 0.985700 0.119200
vn -0.623600 0.771600 0.125900
vn -0.985700 -0.119200 0.119200
vn 0.985700 -0.119200 -0.119200
vn 0.771600 -0.623600 -0.125900
vn 0.771600 -0.623600 0.125900
vn 0.985700 -0.119200 0.119200
vn -0.771600 -0.623600 0.125900
vn -0.771600 -0.623600 -0.125900
vn -0.985700 -0.119200 -0.119200
vn 0.994200 0.000000 -0.107500
vn -0.994200 -0.000000 -0.107500
vn 0.994200 0.000000 0.107500
vn -0.994200 -0.000000 0.107500
usemtl Material.011
s off
f 47//1 17//1 126//1 125//1
f 76//2 72//2 26//2 73//2
f 72//3 75//3 74//3 26//3
f 73//4 26//4 71//4 77//4
f 18//1 36//1 101//1 100//1
f 141//1 139//1 176//1 178//1
f 144//1 143//1 180//1 181//1
f 81//5 66//5 304//5 307//5
f 66//6 96//6 310//6 304//6
f 127//1 166//1 228//1 216//1
f 94//7 55//7 305//7 309//7
f 81//1 47//1 125//1 129//1
f 142//1 134//1 171//1 179//1
f 140//1 136//1 173//1 177//1
f 26//8 74//8 98//8 71//8
f 48//1 18//1 100//1 99//1
f 106//1 105//1 115//1 116//1
f 103//1 106//1 116//1 112//1
f 128//1 129//1 146//1 147//1
f 166//1 160//1 223//1 228//1
f 134//1 142//1 219//1 204//1
f 20//1 38//1 161//1 155//1
f 66//1 81//1 129//1 128//1
f 139//1 140//1 177//1 176//1
f 126//1 17//1 157//1 165//1
f 146//1 151//1 188//1 183//1
f 58//1 87//1 143//1 144//1
f 137//1 126//1 165//1 174//1
f 154//1 167//1 227//1 226//1
f 25//1 70//1 158//1 159//1
f 141//1 130//1 148//1 153//1
f 150//1 145//1 182//1 187//1
f 17//1 69//1 156//1 157//1
f 153//1 148//1 185//1 190//1
f 136//1 137//1 174//1 173//1
f 133//1 135//1 150//1 149//1
f 139//1 141//1 153//1 152//1
f 135//1 94//1 145//1 150//1
f 94//1 58//1 144//1 145//1
f 129//1 140//1 151//1 146//1
f 132//1 135//1 172//1 169//1
f 185//1 148//1 217//1 218//1
f 140//1 139//1 152//1 151//1
f 157//1 160//1 166//1 165//1
f 171//1 170//1 186//1 179//1
f 145//1 144//1 181//1 182//1
f 138//1 141//1 178//1 175//1
f 147//1 146//1 183//1 184//1
f 38//1 132//1 169//1 161//1
f 69//1 25//1 159//1 156//1
f 70//1 20//1 155//1 158//1
f 180//1 143//1 220//1 230//1
f 149//1 150//1 187//1 186//1
f 133//1 149//1 186//1 170//1
f 167//1 131//1 213//1 227//1
f 148//1 130//1 215//1 217//1
f 134//1 131//1 167//1 171//1
f 151//1 152//1 189//1 188//1
f 127//1 138//1 175//1 166//1
f 135//1 133//1 170//1 172//1
f 152//1 153//1 190//1 189//1
f 130//1 127//1 216//1 215//1
f 164//1 154//1 226//1 225//1
f 200//1 266//1 265//1 192//1
f 142//1 179//1 229//1 219//1
f 162//1 164//1 225//1 224//1
f 207//1 216//1 228//1 223//1
f 207//1 211//1 215//1 216//1
f 211//1 210//1 214//1 215//1
f 220//1 219//1 229//1 230//1
f 205//1 204//1 219//1 220//1
f 215//1 214//1 221//1 217//1
f 206//1 207//1 223//1 222//1
f 213//1 209//1 226//1 227//1
f 212//1 208//1 224//1 225//1
f 208//1 206//1 222//1 224//1
f 209//1 212//1 225//1 226//1
f 143//1 87//1 205//1 220//1
f 96//1 66//1 210//1 211//1
f 66//1 128//1 214//1 210//1
f 35//1 96//1 211//1 207//1
f 128//1 147//1 221//1 214//1
f 80//1 35//1 207//1 206//1
f 160//1 163//1 222//1 223//1
f 147//1 184//1 231//1 221//1
f 97//1 67//1 208//1 212//1
f 67//1 80//1 206//1 208//1
f 131//1 134//1 204//1 213//1
f 163//1 162//1 224//1 222//1
f 50//1 97//1 212//1 209//1
f 87//1 50//1 209//1 205//1
f 186//1 245//1 244//1 179//1
f 191//1 247//1 246//1 195//1
f 179//1 244//1 247//1 191//1
f 187//1 249//1 248//1 186//1
f 195//1 251//1 250//1 196//1
f 182//1 253//1 252//1 187//1
f 196//1 255//1 254//1 194//1
f 256//1 257//1 258//1 259//1
f 191//1 257//1 256//1 179//1
f 232//1 258//1 257//1 191//1
f 229//1 259//1 258//1 232//1
f 179//1 256//1 259//1 229//1
f 229//1 261//1 260//1 230//1
f 232//1 262//1 261//1 229//1
f 188//1 281//1 280//1 183//1
f 183//1 280//1 283//1 197//1
f 199//9 286//9 285//9 185//9
f 87//10 58//10 301//10 308//10
f 96//11 63//11 306//11 310//11
f 58//12 94//12 309//12 301//12
f 64//13 81//13 307//13 302//13
f 56//14 87//14 308//14 299//14
f 99//15 100//15 102//15
f 100//16 101//16 102//16
usemtl Material.002
f 105//17 102//17 110//17 115//17
f 113//18 114//18 116//18 115//18
f 114//19 109//19 112//19 116//19
f 115//20 110//20 120//20 123//20
f 112//21 109//21 119//21 122//21
f 117//22 118//22 122//22 119//22
f 120//23 121//23 124//23 123//23
f 109//20 107//20 117//20 119//20
f 111//24 113//24 124//24 121//24
f 110//25 111//25 121//25 120//25
f 108//24 112//24 122//24 118//24
f 107//26 108//26 118//26 117//26
f 113//27 115//27 123//27 124//27
f 102//28 103//28 112//28 108//28
f 102//29 106//29 103//29
f 102//30 105//30 106//30
f 102//31 104//31 111//31 110//31
f 104//32 114//32 113//32
f 104//33 113//33 111//33
f 104//34 107//34 109//34
f 104//35 109//35 114//35
f 104//36 102//36 108//36 107//36
usemtl Material.003
f 78//37 68//37 104//37
f 68//38 79//38 104//38
f 79//39 48//39 99//39 104//39
f 36//40 78//40 104//40 101//40
usemtl Material.004
f 104//41 99//41 102//41
f 101//42 104//42 102//42
usemtl Material.005
f 299//43 308//43 311//43
f 300//44 299//44 311//44
f 309//45 305//45 311//45
f 305//46 300//46 311//46
f 301//47 309//47 311//47
f 308//48 301//48 311//48
f 310//49 306//49 312//49
f 307//50 304//50 312//50
f 303//51 302//51 312//51
f 302//52 307//52 312//52
f 306//53 303//53 312//53
f 304//54 310//54 312//54
usemtl Material
f 127//55 130//55 141//55 138//55
f 38//56 94//56 135//56 132//56
f 125//57 126//57 137//57 136//57
f 129//58 125//58 136//58 140//58
f 155//59 161//59 169//59 168//59
f 154//60 155//60 168//60 167//60
f 165//61 166//61 175//61 174//61
f 205//62 209//62 213//62 204//62
f 176//63 177//63 288//63
f 178//64 176//64 288//64
f 173//65 174//65 288//65
f 177//66 173//66 288//66
f 174//67 175//67 288//67
f 175//68 178//68 288//68
f 171//69 167//69 289//69
f 169//70 172//70 289//70
f 167//71 168//71 289//71
f 172//72 170//72 289//72
f 170//73 171//73 289//73
f 168//74 169//74 289//74
usemtl Material.007
f 92//75 51//75 16//75 34//75
f 52//76 90//76 54//76 21//76
f 11//77 41//77 90//77 52//77
f 29//78 11//78 52//78 91//78
f 51//79 93//79 46//79 16//79
f 21//80 54//80 93//80 51//80
f 53//81 91//81 295//81
f 21//82 51//82 295//82
f 51//83 92//83 295//83
f 92//84 53//84 295//84
f 91//85 52//85 295//85
f 52//86 21//86 295//86
usemtl Material.009
f 95//87 37//87 7//87 33//87
f 84//88 49//88 19//88 62//88
f 60//89 84//89 62//89 23//89
f 13//90 31//90 84//90 60//90
f 31//91 6//91 49//91 84//91
f 59//92 95//92 33//92 15//92
f 23//93 62//93 95//93 59//93
f 62//94 19//94 37//94 95//94
usemtl Material.010
f 98//95 30//95 3//95 44//95
f 97//96 50//96 7//96 37//96
f 96//97 35//97 6//97 31//97
f 94//98 38//98 8//98 34//98
f 93//99 28//99 4//99 46//99
f 90//100 40//100 10//100 54//100
f 89//101 55//101 16//101 46//101
f 86//102 59//102 15//102 45//102
f 85//103 60//103 23//103 61//103
f 83//104 63//104 13//104 43//104
f 80//105 67//105 19//105 49//105
f 79//106 68//106 25//106 69//106
f 78//107 38//107 20//107 70//107
f 77//108 71//108 14//108 32//108
f 75//109 42//109 12//109 74//109
f 9//110 27//110 75//110 72//110
f 27//111 2//111 42//111 75//111
f 40//112 76//112 73//112 10//112
f 1//113 39//113 76//113 40//113
f 39//114 9//114 72//114 76//114
f 28//115 77//115 32//115 4//115
f 10//116 73//116 77//116 28//116
f 68//117 78//117 70//117 25//117
f 36//118 8//118 38//118 78//118
f 47//119 79//119 69//119 17//119
f 5//120 48//120 79//120 47//120
f 35//121 80//121 49//121 6//121
f 11//122 29//122 81//122 64//122
f 29//123 5//123 47//123 81//123
f 1//124 41//124 82//124 39//124
f 41//125 11//125 64//125 82//125
f 27//126 83//126 43//126 2//126
f 42//127 85//127 61//127 12//127
f 2//128 43//128 85//128 42//128
f 43//129 13//129 60//129 85//129
f 30//130 86//130 45//130 3//130
f 12//131 61//131 86//131 30//131
f 61//132 23//132 59//132 86//132
f 15//133 33//133 87//133 56//133
f 33//134 7//134 50//134 87//134
f 3//135 45//135 88//135 44//135
f 45//136 15//136 56//136 88//136
f 32//137 89//137 46//137 4//137
f 41//138 1//138 40//138 90//138
f 48//139 91//139 53//139 18//139
f 5//140 29//140 91//140 48//140
f 36//141 92//141 34//141 8//141
f 18//142 53//142 92//142 36//142
f 54//143 10//143 28//143 93//143
f 55//144 94//144 34//144 16//144
f 63//145 96//145 31//145 13//145
f 67//146 97//146 37//146 19//146
f 71//147 98//147 44//147 14//147
f 74//148 12//148 30//148 98//148
f 157//149 156//149 163//149 160//149
f 156//150 159//150 162//150 163//150
f 159//151 158//151 164//151 162//151
f 158//152 155//152 154//152 164//152
usemtl Material.012
f 88//153 56//153 22//153 57//153
f 82//154 64//154 24//154 65//154
f 39//155 82//155 65//155 9//155
f 9//156 65//156 83//156 27//156
f 65//157 24//157 63//157 83//157
f 44//158 88//158 57//158 14//158
f 14//159 57//159 89//159 32//159
f 57//160 22//160 55//160 89//160
f 24//161 64//161 302//161 303//161
f 55//162 22//162 300//162 305//162
f 63//163 24//163 303//163 306//163
f 22//164 56//164 299//164 300//164
l 235 199
l 186 195
l 233 192
l 198 234
l 192 193
l 193 194
l 180 192
l 193 181
l 187 196
l 194 182
l 199 203
l 198 184
l 232 233
l 230 233
l 203 201
l 246 245
l 250 249
l 248 251
l 254 253
l 252 255
l 263 262
l 260 263
l 233 263
l 265 264
l 267 266
l 264 267
l 264 193
l 269 268
l 270 269
l 271 270
l 268 271
l 193 269
l 268 194
l 189 273
l 272 188
l 190 277
l 276 189
l 283 282
l 298 297
l 284 287
l 284 190
l 293 292
l 263 293
l 292 262
l 261 290
l 291 260
l 294 296
l 296 298
l 283 298
l 296 280
